HIERARCHY
ROOT Hips
{
    OFFSET   0.000000   0.000000   0.000000
    CHANNELS 6 Xposition Yposition Zposition Zrotation Xrotation Yrotation
    JOINT Chest
    {
        OFFSET   0.000000   8.007230   0.000000
        CHANNELS 3 Zrotation Xrotation Yrotation
        JOINT Chest2
        {
            OFFSET   0.000000  22.077100   0.000000
            CHANNELS 3 Zrotation Xrotation Yrotation
            JOINT Neck
            {
                OFFSET   0.000000  23.254800   0.000000
                CHANNELS 3 Zrotation Xrotation Yrotation
                JOINT Head
                {
                    OFFSET   0.000010  14.370000   1.956600
                    CHANNELS 3 Zrotation Xrotation Yrotation
                    End Site
                    {
                        OFFSET   0.000000  19.566000   0.000000
                    }
                }
            }
            JOINT LeftCollar
            {
                OFFSET   3.911900  19.017000  -0.467062
                CHANNELS 3 Zrotation Xrotation Yrotation
                JOINT LeftShoulder
                {
                    OFFSET  10.383700   0.000000   0.000000
                    CHANNELS 3 Zrotation Xrotation Yrotation
                    JOINT LeftElbow
                    {
                        OFFSET  26.662100   0.001193   0.000835
                        CHANNELS 3 Zrotation Xrotation Yrotation
                        JOINT LeftWrist
                        {
                            OFFSET  28.869000  -0.000058  -0.000075
                            CHANNELS 3 Zrotation Xrotation Yrotation
                            JOINT LeftFinger0
                            {
                                OFFSET   2.044660  -2.323460   3.252850
                                CHANNELS 3 Zrotation Xrotation Yrotation
                                JOINT LeftFinger01
                                {
                                    OFFSET   3.088130   0.000000   0.000000
                                    CHANNELS 3 Zrotation Xrotation Yrotation
                                    JOINT LeftFinger02
                                    {
                                        OFFSET   2.639450   0.000000   0.000000
                                        CHANNELS 3 Zrotation Xrotation Yrotation
                                        End Site
                                        {
                                            OFFSET   2.582190   0.000000   0.000000
                                        }
                                    }
                                }
                            }
                            JOINT LeftFinger1
                            {
                                OFFSET   8.364480   0.000000   3.252850
                                CHANNELS 3 Zrotation Xrotation Yrotation
                                JOINT LeftFinger11
                                {
                                    OFFSET   4.646920   0.000000   0.000000
                                    CHANNELS 3 Zrotation Xrotation Yrotation
                                    JOINT LeftFinger12
                                    {
                                        OFFSET   2.323460   0.000000   0.000000
                                        CHANNELS 3 Zrotation Xrotation Yrotation
                                        End Site
                                        {
                                            OFFSET   2.273050   0.000000   0.000000
                                        }
                                    }
                                }
                            }
                            JOINT LeftFinger2
                            {
                                OFFSET   8.364490   0.000016   1.078090
                                CHANNELS 3 Zrotation Xrotation Yrotation
                                JOINT LeftFinger21
                                {
                                    OFFSET   5.111620   0.000000   0.000000
                                    CHANNELS 3 Zrotation Xrotation Yrotation
                                    JOINT LeftFinger22
                                    {
                                        OFFSET   2.788150   0.000012   0.000000
                                        CHANNELS 3 Zrotation Xrotation Yrotation
                                        End Site
                                        {
                                            OFFSET   2.727660   0.000000   0.000000
                                        }
                                    }
                                }
                            }
                            JOINT LeftFinger3
                            {
                                OFFSET   7.899780   0.000014  -1.078090
                                CHANNELS 3 Zrotation Xrotation Yrotation
                                JOINT LeftFinger31
                                {
                                    OFFSET   4.646930   0.000000   0.000000
                                    CHANNELS 3 Zrotation Xrotation Yrotation
                                    JOINT LeftFinger32
                                    {
                                        OFFSET   2.323470   0.000000   0.000000
                                        CHANNELS 3 Zrotation Xrotation Yrotation
                                        End Site
                                        {
                                            OFFSET   2.273050   0.000000   0.000000
                                        }
                                    }
                                }
                            }
                            JOINT LeftFinger4
                            {
                                OFFSET   7.435090   0.000000  -3.252850
                                CHANNELS 3 Zrotation Xrotation Yrotation
                                JOINT LeftFinger41
                                {
                                    OFFSET   3.717550   0.000000   0.000000
                                    CHANNELS 3 Zrotation Xrotation Yrotation
                                    JOINT LeftFinger42
                                    {
                                        OFFSET   1.858770   0.000000   0.000000
                                        CHANNELS 3 Zrotation Xrotation Yrotation
                                        End Site
                                        {
                                            OFFSET   1.818440   0.000000   0.000000
                                        }
                                    }
                                }
                            }
                        }
                    }
                }
            }
            JOINT RightCollar
            {
                OFFSET  -3.911900  19.017000  -0.467063
                CHANNELS 3 Zrotation Xrotation Yrotation
                JOINT RightShoulder
                {
                    OFFSET -10.383700   0.000023   0.000000
                    CHANNELS 3 Zrotation Xrotation Yrotation
                    JOINT RightElbow
                    {
                        OFFSET -26.662100   0.001246   0.001011
                        CHANNELS 3 Zrotation Xrotation Yrotation
                        JOINT RightWrist
                        {
                            OFFSET -28.869000  -0.000026  -0.000078
                            CHANNELS 3 Zrotation Xrotation Yrotation
                            JOINT RightFinger0
                            {
                                OFFSET  -2.044660  -2.323490   3.252850
                                CHANNELS 3 Zrotation Xrotation Yrotation
                                JOINT RightFinger01
                                {
                                    OFFSET  -3.088130   0.000000   0.000000
                                    CHANNELS 3 Zrotation Xrotation Yrotation
                                    JOINT RightFinger02
                                    {
                                        OFFSET  -2.639460   0.000000   0.000000
                                        CHANNELS 3 Zrotation Xrotation Yrotation
                                        End Site
                                        {
                                            OFFSET  -2.582190   0.000000   0.000000
                                        }
                                    }
                                }
                            }
                            JOINT RightFinger1
                            {
                                OFFSET  -8.364480   0.000000   3.252850
                                CHANNELS 3 Zrotation Xrotation Yrotation
                                JOINT RightFinger11
                                {
                                    OFFSET  -4.646920   0.000000   0.000000
                                    CHANNELS 3 Zrotation Xrotation Yrotation
                                    JOINT RightFinger12
                                    {
                                        OFFSET  -2.323470   0.000000   0.000000
                                        CHANNELS 3 Zrotation Xrotation Yrotation
                                        End Site
                                        {
                                            OFFSET  -2.273050   0.000000   0.000000
                                        }
                                    }
                                }
                            }
                            JOINT RightFinger2
                            {
                                OFFSET  -8.364480   0.000000   1.078090
                                CHANNELS 3 Zrotation Xrotation Yrotation
                                JOINT RightFinger21
                                {
                                    OFFSET  -5.111620   0.000000   0.000000
                                    CHANNELS 3 Zrotation Xrotation Yrotation
                                    JOINT RightFinger22
                                    {
                                        OFFSET  -2.788160   0.000000   0.000000
                                        CHANNELS 3 Zrotation Xrotation Yrotation
                                        End Site
                                        {
                                            OFFSET  -2.727660   0.000000   0.000000
                                        }
                                    }
                                }
                            }
                            JOINT RightFinger3
                            {
                                OFFSET  -7.899780   0.000000  -1.078090
                                CHANNELS 3 Zrotation Xrotation Yrotation
                                JOINT RightFinger31
                                {
                                    OFFSET  -4.646930   0.000000   0.000000
                                    CHANNELS 3 Zrotation Xrotation Yrotation
                                    JOINT RightFinger32
                                    {
                                        OFFSET  -2.323470   0.000000   0.000000
                                        CHANNELS 3 Zrotation Xrotation Yrotation
                                        End Site
                                        {
                                            OFFSET  -2.273050   0.000000   0.000000
                                        }
                                    }
                                }
                            }
                            JOINT RightFinger4
                            {
                                OFFSET  -7.435090   0.000000  -3.252850
                                CHANNELS 3 Zrotation Xrotation Yrotation
                                JOINT RightFinger41
                                {
                                    OFFSET  -3.717550   0.000000   0.000000
                                    CHANNELS 3 Zrotation Xrotation Yrotation
                                    JOINT RightFinger42
                                    {
                                        OFFSET  -1.858760   0.000000   0.000000
                                        CHANNELS 3 Zrotation Xrotation Yrotation
                                        End Site
                                        {
                                            OFFSET  -1.818440   0.000000   0.000000
                                        }
                                    }
                                }
                            }
                        }
                    }
                }
            }
        }
    }
    JOINT LeftHip
    {
        OFFSET   9.783010   0.000000   0.000000
        CHANNELS 3 Zrotation Xrotation Yrotation
        JOINT LeftKnee
        {
            OFFSET   0.000073 -41.789100   0.001749
            CHANNELS 3 Zrotation Xrotation Yrotation
            JOINT LeftAnkle
            {
                OFFSET   0.000111 -41.133200  -0.000179
                CHANNELS 3 Zrotation Xrotation Yrotation
                JOINT LeftToe
                {
                    OFFSET   0.000000  -6.358960  14.674500
                    CHANNELS 3 Zrotation Xrotation Yrotation
                    End Site
                    {
                        OFFSET   0.000000   0.000000   3.913200
                    }
                }
            }
        }
    }
    JOINT RightHip
    {
        OFFSET  -9.783010   0.000000   0.000000
        CHANNELS 3 Zrotation Xrotation Yrotation
        JOINT RightKnee
        {
            OFFSET   0.000424 -41.789200   0.005205
            CHANNELS 3 Zrotation Xrotation Yrotation
            JOINT RightAnkle
            {
                OFFSET   0.000000 -41.133200  -0.000155
                CHANNELS 3 Zrotation Xrotation Yrotation
                JOINT RightToe
                {
                    OFFSET   0.000000  -6.358960  14.674500
                    CHANNELS 3 Zrotation Xrotation Yrotation
                    End Site
                    {
                        OFFSET   0.000000   0.000000   3.913200
                    }
                }
            }
        }
    }
}
MOTION
Frames: 6
Frame Time:   0.016667
 -1.427920  89.469600   0.265354  -1.849590  -7.147250  -0.751294   1.113830   3.205250   0.142699   2.224890   6.412690   0.223379   0.773643   0.009266  -0.001517   1.270930   0.018361   1.355530  -5.061570   1.268640   0.404652 -76.725700  14.206600  -0.435859   0.078052  -3.013620 -16.561300  11.810900  -3.831310   3.796610  38.940500  33.298400 -52.888500 -34.201100  -0.001328  -0.000837 -12.100600   0.000837   0.006163 -31.247500   5.652120  -9.237730 -25.943800   0.000721   0.003167 -18.160600   0.000633  -0.008669 -28.740900  -0.808549   1.481900 -40.264000  -0.006334   0.011787 -26.818700   0.001120  -0.014565 -28.381800  -0.799440   1.486890 -35.093500   0.006023  -0.002352 -23.356300  -0.010966   0.001592 -30.666200  -0.857914   1.453570 -46.033100   0.005687  -0.001275 -30.657000   0.001601   0.000714   5.474800  -0.363684   6.495670  73.411500   2.264570  -7.670400  -2.258930  -8.263770  11.611100 -10.250200   3.103460   4.448520 -44.418000  40.182800  80.385000  26.464500   0.001587  -0.000697   8.235910   0.001811   0.000453  34.894600   9.010830  12.638100  29.367800   0.002734  -0.000151  20.567000   0.004787   0.011824  28.710300   2.726420   4.966080  43.243300  -0.002125  -0.003220  28.800000   0.004362   0.002836  28.618800   2.723010   4.961330  39.841100   0.006796  -0.001139  26.534200   0.002336  -0.000622  37.942000  -0.505838  -0.640861  56.913100   0.005024   0.002659  37.906900   0.003796  -0.002061   1.802940   9.729190   3.363630   0.914731   0.075913   5.360890  -0.915133  -2.958730   1.658830   0.000000   0.000000   0.000000   3.730480  10.382300  -2.282670   0.274360   0.425299  -4.623050  -2.641670  -4.738140  -2.737990   0.000000   0.000000   0.000000
 -1.450340  89.469500   0.258271  -1.848410  -7.168050  -0.740546   1.117750   3.222330   0.140266   2.232890   6.446790   0.217947   0.786799   0.020209  -0.001521   1.292570   0.040616   1.355500  -5.057820   1.252530   0.404641 -76.721600  14.224400  -0.451296   0.076896  -3.014210 -16.576800  11.811100  -3.835060   3.796630  38.941200  33.304700 -52.887300 -34.201100  -0.001331  -0.000816 -12.100600   0.000837   0.006164 -31.247300   5.651990  -9.237720 -25.943800   0.000720   0.003168 -18.160600   0.000635  -0.008669 -28.740800  -0.808538   1.491350 -40.263800  -0.006335   0.011787 -26.818600   0.001121  -0.014565 -28.381700  -0.799428   1.496370 -35.088500   0.006023  -0.002354 -23.356200  -0.010967   0.001592 -30.666100  -0.857910   1.462900 -46.027100   0.005688  -0.001276 -30.657100   0.001602   0.000715   5.476850  -0.379330   6.509870  73.412100   2.270350  -7.664860  -2.260170  -8.256970  11.611800 -10.260500   3.099970   4.450200 -44.418300  40.185000  80.389800  26.466700   0.001574  -0.000685   8.235900   0.001799   0.000443  34.896800   9.010790  12.638000  29.369800   0.002731  -0.000193  20.566800   0.004759   0.011842  28.713700   2.727370   4.966080  43.248400  -0.002127  -0.003223  28.803400   0.004360   0.002838  28.618700   2.722950   4.965410  39.846100   0.006791  -0.001151  26.537500   0.002332  -0.000619  37.942000  -0.505798  -0.640733  56.913700   0.005028   0.002654  37.906900   0.003782  -0.002059   1.818140   9.730070   3.363770   0.914525   0.104048   5.364940  -0.929834  -2.965050   1.644170  -0.000000   0.000000  -0.000000   3.747020  10.401000  -2.291510   0.269987   0.423215  -4.624300  -2.652880  -4.736600  -2.742730   0.000000   0.000000   0.000000
 -1.488180  89.469500   0.247661  -1.846400  -7.206500  -0.721907   1.124340   3.252320   0.136120   2.246370   6.506670   0.208676   0.809438   0.038218  -0.001528   1.329790   0.077260   1.355240  -5.050280   1.226620   0.404626 -76.713800  14.264400  -0.481216   0.073857  -3.019660 -16.599200  11.811100  -3.838820   3.796680  38.943300  33.316200 -52.887800 -34.201100  -0.001336  -0.000795 -12.100600   0.000841   0.006167 -31.247100   5.651820  -9.237720 -25.943800   0.000718   0.003168 -18.160600   0.000637  -0.008668 -28.740600  -0.808525   1.500790 -40.263600  -0.006336   0.011788 -26.818300   0.001122  -0.014566 -28.381500  -0.799415   1.505860 -35.081500   0.006023  -0.002357 -23.356100  -0.010970   0.001592 -30.666000  -0.857905   1.472230 -46.021200   0.005690  -0.001276 -30.657300   0.001604   0.000718   5.480140  -0.405231   6.532730  73.413500   2.282950  -7.655220  -2.261420  -8.247450  11.616100 -10.275200   3.093280   4.455190 -44.417500  40.189000  80.397600  26.471800   0.001532  -0.000661   8.235900   0.001769   0.000426  34.901500   9.010700  12.637900  29.374000   0.002716  -0.000287  20.566700   0.004699   0.011885  28.720200   2.729000   4.966090  43.257900  -0.002131  -0.003232  28.809700   0.004355   0.002841  28.618400   2.722850   4.971000  39.855800   0.006778  -0.001179  26.543900   0.002322  -0.000613  37.942000  -0.505731  -0.640606  56.917200   0.005036   0.002641  37.906900   0.003746  -0.002054   1.843730   9.736190   3.363960   0.915092   0.139429   5.372360  -0.953779  -2.971390   1.618000  -0.000000   0.000000  -0.000000   3.776080  10.436700  -2.304670   0.262856   0.421128  -4.630240  -2.672990  -4.735050  -2.749840   0.000000   0.000000   0.000000
 -1.519290  89.469500   0.241812  -1.844760  -7.244910  -0.705675   1.129710   3.279120   0.132757   2.257360   6.560220   0.201101   0.829034   0.052285  -0.001537   1.362030   0.105946   1.351010  -5.041410   1.208760   0.404621 -76.705300  14.317900  -0.513810   0.066610  -3.041440 -16.611600  11.810800  -3.835730   3.796980  38.949200  33.329700 -52.897000 -34.201100  -0.001341  -0.000814 -12.100600   0.000849   0.006180 -31.247300   5.651840  -9.231780 -25.943700   0.000715   0.003169 -18.160500   0.000635  -0.008667 -28.740800  -0.808521   1.496420 -40.263600  -0.006335   0.011790 -26.818100   0.001122  -0.014568 -28.381600  -0.799414   1.501470 -35.078400   0.006025  -0.002357 -23.356300  -0.010972   0.001592 -30.666200  -0.857906   1.467930 -46.024900   0.005692  -0.001274 -30.657400   0.001604   0.000719   5.482440  -0.424750   6.548630  73.415800   2.301310  -7.647030  -2.264200  -8.244860  11.625700 -10.282300   3.083990   4.464110 -44.412500  40.192500  80.402800  26.479700   0.001457  -0.000635   8.239240   0.001720   0.000414  34.908400   9.010590  12.638100  29.380100   0.002682  -0.000415  20.568000   0.004625   0.011942  28.727200   2.730410   4.966660  43.268400  -0.002139  -0.003244  28.816700   0.004344   0.002847  28.618300   2.722770   4.972740  39.866200   0.006756  -0.001221  26.550800   0.002305  -0.000602  37.946700  -0.505666  -0.641417  56.925600   0.005050   0.002619  37.911500   0.003688  -0.002043   1.863500   9.761160   3.363660   0.917698   0.147881   5.381830  -0.971536  -2.968970   1.592320  -0.000000   0.000000  -0.000000   3.802000  10.475300  -2.311750   0.257732   0.422311  -4.644230  -2.691880  -4.739610  -2.752480  -0.000000   0.000000  -0.000000
 -1.551250  89.469500   0.237135  -1.843050  -7.288480  -0.688160   1.135230   3.308510   0.128999   2.268680   6.618950   0.192670   0.849508   0.065806  -0.001550   1.395700   0.133482   1.342210  -5.031270   1.190190   0.404618 -76.695300  14.382900  -0.551738   0.057343  -3.071400 -16.617200  11.810500  -3.830940   3.797250  38.952400  33.339400 -52.902200 -34.201100  -0.001343  -0.000833 -12.100600   0.000861   0.006201 -31.247800   5.651920  -9.224650 -25.943700   0.000712   0.003169 -18.160500   0.000633  -0.008667 -28.740900  -0.808521   1.488670 -40.263500  -0.006334   0.011794 -26.818000   0.001122  -0.014569 -28.381700  -0.799417   1.493700 -35.077300   0.006028  -0.002357 -23.356600  -0.010976   0.001594 -30.666400  -0.857909   1.460310 -46.028500   0.005696  -0.001272 -30.657500   0.001605   0.000720   5.484620  -0.445737   6.564950  73.417900   2.319080  -7.637650  -2.269180  -8.241910  11.640400 -10.285200   3.077880   4.475060 -44.408000  40.196600  80.407900  26.487700   0.001354  -0.000595   8.244050   0.001659   0.000398  34.915200   9.010470  12.638600  29.386000   0.002639  -0.000562  20.570200   0.004535   0.012015  28.734100   2.731830   4.967680  43.278800  -0.002149  -0.003259  28.823700   0.004330   0.002855  28.618300   2.722720   4.973550  39.878200   0.006728  -0.001276  26.558800   0.002285  -0.000588  37.954900  -0.505626  -0.643155  56.936500   0.005067   0.002594  37.919700   0.003617  -0.002030   1.884400   9.801040   3.363110   0.919528   0.149088   5.387920  -0.988988  -2.960780   1.566730   0.000000   0.000000   0.000000   3.830510  10.518000  -2.317160   0.252493   0.427630  -4.660550  -2.713340  -4.748920  -2.757050  -0.000000   0.000000   0.000000
 -1.583990  89.469500   0.232849  -1.841540  -7.337090  -0.669133   1.141160   3.340960   0.124502   2.280870   6.683750   0.182663   0.870290   0.078658  -0.001567   1.429850   0.159519   1.331140  -5.020550   1.167860   0.409812 -76.685200  14.455800  -0.594273   0.049664  -3.097320 -16.616900  11.811600  -3.827230   3.796010  38.953700  33.341800 -52.891600 -34.202500  -0.001334  -0.000824 -12.101500   0.000878   0.006222 -31.247800   5.653080  -9.223300 -25.943700   0.000712   0.003166 -18.160500   0.000635  -0.008666 -28.741100  -0.808812   1.481000 -40.264500  -0.006336   0.011797 -26.818100   0.001122  -0.014568 -28.381800  -0.799693   1.486000 -35.079100   0.006032  -0.002360 -23.356900  -0.010985   0.001594 -30.666500  -0.858144   1.452770 -46.027800   0.005703  -0.001270 -30.655900   0.001608   0.000721   5.483500  -0.470747   6.584740  73.418400   2.325370  -7.626900  -2.273450  -8.234290  11.661600 -10.285700   3.078630   4.486300 -44.407800  40.200700  80.411400  26.493000   0.001226  -0.000528   8.246270   0.001592   0.000365  34.918700   9.010410  12.639300  29.388900   0.002598  -0.000713  20.571700   0.004427   0.012102  28.739000   2.733120   4.968510  43.286500  -0.002163  -0.003272  28.828800   0.004318   0.002861  28.618200   2.722770   4.974500  39.891600   0.006696  -0.001344  26.567700   0.002264  -0.000571  37.963000  -0.505653  -0.645610  56.948600   0.005084   0.002567  37.927800   0.003539  -0.002016   1.909110   9.845770   3.363140   0.920347   0.139879   5.385760  -1.006890  -2.944700   1.546070   0.000000   0.000000   0.000000   3.862860  10.560100  -2.321080   0.246094   0.440825  -4.674820  -2.738020  -4.760870  -2.768690  -0.000000   0.000000   0.000000
